<?xml version="1.0" encoding="UTF-8" standalone="no"?>
<!-- Created with Inkscape (http://www.inkscape.org/) -->

<svg
   width="500px"
   height="500px"
   viewBox="0 0 500 500"
   version="1.1"
   id="SVGRoot"
   sodipodi:docname="капибара значок.svg"
   inkscape:version="1.2.2 (732a01da63, 2022-12-09)"
   xmlns:inkscape="http://www.inkscape.org/namespaces/inkscape"
   xmlns:sodipodi="http://sodipodi.sourceforge.net/DTD/sodipodi-0.dtd"
   xmlns:xlink="http://www.w3.org/1999/xlink"
   xmlns="http://www.w3.org/2000/svg"
   xmlns:svg="http://www.w3.org/2000/svg">
  <sodipodi:namedview
     id="namedview41838"
     pagecolor="#ffffff"
     bordercolor="#000000"
     borderopacity="0.25"
     inkscape:showpageshadow="2"
     inkscape:pageopacity="0.0"
     inkscape:pagecheckerboard="0"
     inkscape:deskcolor="#d1d1d1"
     inkscape:document-units="px"
     showgrid="false"
     inkscape:zoom="1.1893044"
     inkscape:cx="111.40966"
     inkscape:cy="239.21546"
     inkscape:window-width="1920"
     inkscape:window-height="1080"
     inkscape:window-x="1912"
     inkscape:window-y="-8"
     inkscape:window-maximized="1"
     inkscape:current-layer="layer1" />
  <defs
     id="defs41833">
    <linearGradient
       inkscape:collect="always"
       xlink:href="#linearGradient45925"
       id="linearGradient28596"
       gradientUnits="userSpaceOnUse"
       gradientTransform="matrix(0.27090097,0,0,0.27090097,65.116092,94.597674)"
       x1="2.7604198"
       y1="178.68477"
       x2="172.76041"
       y2="178.68477" />
    <linearGradient
       inkscape:collect="always"
       id="linearGradient45925">
      <stop
         style="stop-color:#5d83f7;stop-opacity:1;"
         offset="0"
         id="stop45921" />
      <stop
         style="stop-color:#875cf7;stop-opacity:1;"
         offset="1"
         id="stop45923" />
    </linearGradient>
  </defs>
  <g
     inkscape:label="Слой 1"
     inkscape:groupmode="layer"
     id="layer1">
    <g
       id="g32429"
       transform="matrix(9.0587455,0,0,9.0587455,-552.95851,-1043.7073)">
      <path
         style="fill:url(#linearGradient28596);fill-opacity:1;stroke:none;stroke-width:0.553957;stroke-linecap:round;stroke-linejoin:round;stroke-dasharray:none;stroke-dashoffset:0;stroke-opacity:1;paint-order:stroke fill markers"
         id="path45170-7"
         sodipodi:type="arc"
         sodipodi:cx="88.890488"
         sodipodi:cy="143.00356"
         sodipodi:rx="22.749601"
         sodipodi:ry="22.749599"
         sodipodi:start="0"
         sodipodi:end="6.2755887"
         sodipodi:open="true"
         sodipodi:arc-type="arc"
         d="M 111.64009,143.00356 A 22.749601,22.749599 0 0 1 88.933693,165.75311 22.749601,22.749599 0 0 1 66.14105,143.08996 22.749601,22.749599 0 0 1 88.760874,120.25433 22.749601,22.749599 0 0 1 111.63943,142.83074" />
      <g
         id="g32372">
        <path
           style="fill:#404040;fill-opacity:0.449848;stroke:none;stroke-width:0.454533;stroke-linecap:round;stroke-linejoin:round;stroke-dasharray:none;stroke-dashoffset:0;stroke-opacity:1;paint-order:stroke fill markers"
           id="path54111-4"
           sodipodi:type="arc"
           sodipodi:cx="88.928719"
           sodipodi:cy="156.90451"
           sodipodi:rx="13.02385"
           sodipodi:ry="2.6813807"
           sodipodi:start="0"
           sodipodi:end="6.2755887"
           sodipodi:open="true"
           sodipodi:arc-type="arc"
           d="m 101.95257,156.90451 a 13.02385,2.6813807 0 0 1 -12.999117,2.68138 13.02385,2.6813807 0 0 1 -13.048491,-2.67119 13.02385,2.6813807 0 0 1 12.949554,-2.69153 13.02385,2.6813807 0 0 1 13.097674,2.66097" />
        <g
           id="g32317">
          <g
             id="g32227">
            <path
               id="rect42780-8-8-4"
               style="fill:#dda16b;fill-opacity:1;stroke-width:0.679677;stroke-linecap:round;stroke-linejoin:round;paint-order:stroke fill markers"
               d="m 86.265462,155.68327 h 5.406472 l 0.034,1.45821 -2.932736,0.181 -2.507738,-0.18906 z"
               sodipodi:nodetypes="cccccc" />
            <path
               id="path18677-4-4-1"
               style="fill:#f68e39;fill-opacity:1;stroke:#000000;stroke-width:0.506;stroke-linecap:round;stroke-linejoin:round;stroke-dasharray:none;paint-order:stroke fill markers"
               d="m 98.434713,149.37509 c 0,5.32844 -4.37648,7.25599 -9.530322,7.26611 -5.153838,0.0101 -9.902041,-1.95797 -9.158435,-7.22942 0.744133,-5.27518 4.137342,-9.66714 9.291105,-9.6975 5.153762,-0.0304 8.492692,4.63166 9.397382,9.58742"
               sodipodi:nodetypes="csssc" />
            <path
               id="path21776-2-2-7-5"
               style="fill:none;stroke:#000000;stroke-width:0.306118;stroke-linecap:round;stroke-linejoin:round;stroke-dasharray:2.44894, 2.44894;stroke-dashoffset:0;paint-order:stroke fill markers"
               d="m 93.679409,143.1542 c -1.022765,2.05086 -1.905565,2.78405 -4.556862,2.78811 -2.651298,0.004 -4.663617,-0.61602 -5.163761,-2.75209 -0.48698,-2.07984 2.128379,-3.8754 4.779637,-3.88757 2.651257,-0.0122 4.814166,1.70742 4.834308,3.84344"
               sodipodi:nodetypes="csssc" />
            <path
               style="fill:none;fill-opacity:1;stroke:#000000;stroke-width:0.205;stroke-linecap:round;stroke-linejoin:round;stroke-dasharray:none;stroke-dashoffset:0;stroke-opacity:1;paint-order:stroke fill markers"
               d="m 80.928193,154.06287 1.441955,0.54957"
               id="path21927-1-5-9"
               sodipodi:nodetypes="cc" />
            <path
               style="fill:#f68e39;fill-opacity:1;stroke:#000000;stroke-width:0.559198;stroke-linecap:round;stroke-linejoin:round;stroke-dasharray:none;stroke-dashoffset:0;stroke-opacity:1;paint-order:stroke fill markers"
               d="m 82.634354,151.60157 c 0,0 -4.31842,0.0308 -3.649369,-3.24168 0.669051,-3.27256 4.036313,-6.13289 4.036313,-6.13289"
               id="path22861-0-2-0"
               sodipodi:nodetypes="csc" />
            <path
               style="fill:#f68e39;fill-opacity:1;stroke:#000000;stroke-width:0.549929;stroke-linecap:round;stroke-linejoin:round;stroke-dasharray:none;stroke-dashoffset:0;stroke-opacity:1;paint-order:stroke fill markers"
               d="m 94.544393,151.30321 c 0,0 4.92576,-0.14764 4.26282,-3.3418 -0.66293,-3.19415 -3.99943,-5.98597 -3.99943,-5.98597"
               id="path22861-4-4-6-7"
               sodipodi:nodetypes="csc" />
            <path
               style="fill:none;fill-opacity:1;stroke:#000000;stroke-width:0.306118;stroke-linecap:round;stroke-linejoin:round;stroke-dasharray:none;stroke-dashoffset:0;stroke-opacity:1;paint-order:stroke fill markers"
               d="m 83.854045,145.28485 c 0,0.21094 0,0.42187 0,0.63281"
               id="path21865-7-4-7" />
            <path
               style="fill:none;fill-opacity:1;stroke:#000000;stroke-width:0.306118;stroke-linecap:round;stroke-linejoin:round;stroke-dasharray:none;stroke-dashoffset:0;stroke-opacity:1;paint-order:stroke fill markers"
               d="m 93.978912,144.83285 c 0,0.32143 0,0.64285 0,0.96427"
               id="path21863-8-2-5" />
            <path
               id="path21776-1-3-1"
               style="fill:#dda16b;fill-opacity:1;stroke:#000000;stroke-width:0.522839;stroke-linecap:round;stroke-linejoin:round;stroke-dasharray:none;paint-order:stroke fill markers"
               d="m 93.285841,142.3619 c -1.139339,2.39698 -1.981116,2.83088 -4.421215,2.83255 -2.443129,0.002 -4.006861,-0.74725 -4.01614,-2.30952 -0.0093,-1.56226 1.241092,-2.49772 3.684183,-2.50662 2.443092,-0.009 3.984174,0.82689 4.002733,2.38912"
               sodipodi:nodetypes="csssc" />
            <path
               style="fill:#dda16b;fill-opacity:1;stroke:#000000;stroke-width:0.549929;stroke-linecap:round;stroke-linejoin:round;stroke-dasharray:none;stroke-dashoffset:0;stroke-opacity:1;paint-order:stroke fill markers"
               id="path45094-3-3-1"
               sodipodi:type="arc"
               sodipodi:cx="83.934761"
               sodipodi:cy="150.39313"
               sodipodi:rx="2.3758001"
               sodipodi:ry="2.333185"
               sodipodi:start="0"
               sodipodi:end="6.2755887"
               sodipodi:open="true"
               sodipodi:arc-type="arc"
               d="m 86.310561,150.39313 a 2.3758001,2.333185 0 0 1 -2.371288,2.33318 2.3758001,2.333185 0 0 1 -2.380295,-2.32432 2.3758001,2.333185 0 0 1 2.362247,-2.34201 2.3758001,2.333185 0 0 1 2.389268,2.31542" />
            <path
               style="fill:#dda16b;fill-opacity:1;stroke:#000000;stroke-width:0.549929;stroke-linecap:round;stroke-linejoin:round;stroke-dasharray:none;stroke-dashoffset:0;stroke-opacity:1;paint-order:stroke fill markers"
               id="path45094-8-3-8-5"
               sodipodi:type="arc"
               sodipodi:cx="94.748383"
               sodipodi:cy="150.1481"
               sodipodi:rx="2.3758001"
               sodipodi:ry="2.333185"
               sodipodi:start="0"
               sodipodi:end="6.2755887"
               sodipodi:open="true"
               sodipodi:arc-type="arc"
               d="m 97.124183,150.1481 a 2.3758001,2.333185 0 0 1 -2.371288,2.33318 2.3758001,2.333185 0 0 1 -2.380295,-2.32432 2.3758001,2.333185 0 0 1 2.362247,-2.34201 2.3758001,2.333185 0 0 1 2.389267,2.31543" />
            <path
               style="fill:none;fill-opacity:1;stroke:#000000;stroke-width:0.310002;stroke-linecap:round;stroke-linejoin:round;stroke-dasharray:none;stroke-dashoffset:0;stroke-opacity:1;paint-order:stroke fill markers"
               d="m 86.347399,157.05393 c 0,0 2.752399,0.52441 5.216238,0.042"
               id="path21931-9-6-9"
               sodipodi:nodetypes="cc" />
            <path
               style="fill:none;fill-opacity:1;stroke:#000000;stroke-width:0.205;stroke-linecap:round;stroke-linejoin:round;stroke-dasharray:none;stroke-dashoffset:0;stroke-opacity:1;paint-order:stroke fill markers"
               d="m 97.342863,153.39788 -1.44196,0.54957"
               id="path21927-1-5-9-83"
               sodipodi:nodetypes="cc" />
            <path
               id="path31691"
               style="fill:#dda16b;stroke-width:0.218256;stroke-linecap:round;paint-order:stroke fill markers"
               inkscape:transform-center-x="0.1820232"
               inkscape:transform-center-y="-0.00872847"
               d="m 96.123133,154.67312 -0.17583,-0.63317 1.26645,-0.49521 z"
               sodipodi:nodetypes="cccc" />
            <path
               id="path31691-2"
               style="fill:#dda16b;stroke-width:0.223835;stroke-linecap:round;paint-order:stroke fill markers"
               inkscape:transform-center-x="-0.1852712"
               inkscape:transform-center-y="-0.0090190872"
               d="m 82.198219,155.09827 0.155165,-0.44585 -1.167059,-0.36975 z"
               sodipodi:nodetypes="cccc" />
          </g>
          <g
             id="g45957-2-1-8"
             transform="matrix(0.27090097,0,0,0.27090097,65.057908,93.061978)">
            <path
               id="rect21824-0-8-4"
               style="fill:#ffffff;stroke:#000000;stroke-width:2.1;stroke-linecap:round;stroke-linejoin:round;stroke-dasharray:none;paint-order:stroke fill markers"
               d="M 63.555178,199.17487 H 116.7405 l -6.65414,30.9384 -42.296733,-0.61974 z"
               sodipodi:nodetypes="ccccc" />
            <text
               xml:space="preserve"
               style="font-size:7.53326px;fill:#000000;fill-opacity:1;stroke:#000000;stroke-width:0.531;stroke-linecap:round;stroke-linejoin:round;stroke-dasharray:none;stroke-dashoffset:0;stroke-opacity:1;paint-order:stroke fill markers"
               x="86.721748"
               y="202.68927"
               id="text21921-5-2-8"
               transform="scale(0.94038461,1.0633947)"><tspan
                 sodipodi:role="line"
                 id="tspan21919-3-4-0"
                 style="fill:#000000;fill-opacity:1;stroke-width:0.531;stroke-dasharray:none"
                 x="86.721748"
                 y="202.68927">SEO</tspan></text>
          </g>
          <g
             id="g32159">
            <path
               id="path6284"
               style="fill:#dda16b;fill-opacity:1;stroke:#000000;stroke-width:0.779002;stroke-linecap:round;stroke-linejoin:round;stroke-dasharray:none;paint-order:stroke fill markers"
               d="m 85.185085,130.87867 c -0.476254,0.59898 -1.182795,0.31665 -2.116693,-0.13114 -0.850093,-0.40762 -1.214899,-1.96308 -0.741276,-2.56461 0.473521,-0.60164 1.898172,-0.42094 2.458731,0.38333 0.60931,0.87419 0.876746,1.70005 0.405763,2.30413"
               sodipodi:nodetypes="csssc" />
            <path
               id="path6284-2"
               style="fill:#dda16b;fill-opacity:1;stroke:#000000;stroke-width:0.779002;stroke-linecap:round;stroke-linejoin:round;stroke-dasharray:none;paint-order:stroke fill markers"
               d="m 93.381237,130.78569 c 0.476255,0.59899 1.182795,0.31665 2.116694,-0.13114 0.850092,-0.40762 1.214898,-1.96308 0.741276,-2.56461 -0.473522,-0.60164 -1.898173,-0.42093 -2.458732,0.38333 -0.60931,0.87419 -0.876745,1.70005 -0.405763,2.30413"
               sodipodi:nodetypes="csssc" />
            <path
               id="path2486"
               style="fill:#dda16b;fill-opacity:1;stroke:#000000;stroke-width:0.679;stroke-linecap:round;stroke-linejoin:round;stroke-dasharray:none;paint-order:stroke fill markers"
               d="m 89.103826,129.17405 c -4.419017,0.0258 -6.563142,4.04219 -7.966707,8.24394 -1.435109,4.29621 3.801935,6.62738 8.221007,6.61874 4.419079,-0.009 9.04183,-2.82576 7.803338,-6.65012 -0.141348,-0.43647 -0.557311,-1.73199 -0.951854,-2.58511 -1.963782,-3.94673 -2.686775,-5.65322 -7.105784,-5.62745 z"
               sodipodi:nodetypes="sssscs" />
            <g
               id="g6483"
               transform="matrix(0.7786512,0,0,0.7786512,-3.1733329,1.0877443)"
               style="stroke-width:0.872021;stroke-dasharray:none">
              <path
                 id="path6311"
                 style="opacity:1;fill:#000000;fill-opacity:1;stroke:#000000;stroke-width:0.872021;stroke-linecap:round;stroke-linejoin:round;stroke-dasharray:none;paint-order:stroke fill markers"
                 d="m 125.34183,171.87235 c 0,0.58987 -0.64248,0.0692 -1.41862,0.0703 -0.77616,0.002 -1.39288,0.52356 -1.39582,-0.0663 -0.003,-0.58987 0.62306,-1.07017 1.3992,-1.07353 0.77613,-0.004 1.4093,0.47149 1.4152,1.06134"
                 sodipodi:nodetypes="csssc" />
              <path
                 id="path6311-2"
                 style="fill:#000000;fill-opacity:1;stroke:#000000;stroke-width:0.872021;stroke-linecap:round;stroke-linejoin:round;stroke-dasharray:none;paint-order:stroke fill markers"
                 d="m 114.30184,171.67824 c 0,0.58987 -0.64247,0.0692 -1.41862,0.0703 -0.77615,0.002 -1.39287,0.52356 -1.39581,-0.0663 -0.003,-0.58987 0.62306,-1.07017 1.39919,-1.07353 0.77614,-0.004 1.40931,0.47149 1.4152,1.06134"
                 sodipodi:nodetypes="csssc" />
              <g
                 id="g6474"
                 style="stroke-width:0.872021;stroke-dasharray:none">
                <path
                   style="opacity:1;fill:#ab6333;fill-opacity:1;stroke:#000000;stroke-width:0.872021;stroke-linecap:round;stroke-linejoin:round;stroke-dasharray:none;stroke-opacity:1;paint-order:stroke fill markers"
                   id="path6309"
                   sodipodi:type="arc"
                   sodipodi:cx="118.2868"
                   sodipodi:cy="175.67625"
                   sodipodi:rx="4.4433556"
                   sodipodi:ry="4.864305"
                   sodipodi:start="0"
                   sodipodi:end="6.2755887"
                   sodipodi:open="true"
                   sodipodi:arc-type="arc"
                   d="m 122.73015,175.67625 a 4.4433556,4.864305 0 0 1 -4.43491,4.8643 4.4433556,4.864305 0 0 1 -4.45177,-4.84582 4.4433556,4.864305 0 0 1 4.41801,-4.8827 4.4433556,4.864305 0 0 1 4.46854,4.82727" />
                <path
                   style="opacity:1;fill:#000000;fill-opacity:1;stroke:#000000;stroke-width:0.872021;stroke-linecap:round;stroke-linejoin:round;stroke-dasharray:none;stroke-opacity:1;paint-order:stroke fill markers"
                   id="path6336"
                   sodipodi:type="arc"
                   sodipodi:cx="149.02472"
                   sodipodi:cy="150.26813"
                   sodipodi:rx="0.39005542"
                   sodipodi:ry="0.65761894"
                   sodipodi:start="0"
                   sodipodi:end="6.2755887"
                   sodipodi:open="true"
                   sodipodi:arc-type="arc"
                   d="m 149.41477,150.26813 a 0.39005542,0.65761894 0 0 1 -0.38931,0.65762 0.39005542,0.65761894 0 0 1 -0.39079,-0.65512 0.39005542,0.65761894 0 0 1 0.38783,-0.66011 0.39005542,0.65761894 0 0 1 0.39226,0.65261"
                   transform="rotate(10.219299)" />
                <path
                   style="fill:#000000;fill-opacity:1;stroke:#000000;stroke-width:0.872021;stroke-linecap:round;stroke-linejoin:round;stroke-dasharray:none;stroke-opacity:1;paint-order:stroke fill markers"
                   id="path6336-7"
                   sodipodi:type="arc"
                   sodipodi:cx="-83.625359"
                   sodipodi:cy="192.18178"
                   sodipodi:rx="0.39005542"
                   sodipodi:ry="0.65761894"
                   sodipodi:start="0"
                   sodipodi:end="6.2755887"
                   sodipodi:open="true"
                   sodipodi:arc-type="arc"
                   d="m -83.235303,192.18178 a 0.39005542,0.65761894 0 0 1 -0.389315,0.65762 0.39005542,0.65761894 0 0 1 -0.390793,-0.65512 0.39005542,0.65761894 0 0 1 0.38783,-0.66011 0.39005542,0.65761894 0 0 1 0.392267,0.65261"
                   transform="matrix(-0.9841359,0.17741624,0.17741624,0.9841359,0,0)" />
                <path
                   style="opacity:1;fill:#000000;fill-opacity:1;stroke:#000000;stroke-width:0.872021;stroke-linecap:round;stroke-linejoin:round;stroke-dasharray:none;stroke-opacity:1;paint-order:stroke fill markers"
                   d="m 118.2026,174.82343 v 3.86953"
                   id="path6468" />
              </g>
            </g>
          </g>
          <g
             id="g32179"
             transform="translate(0.046772,-0.6548103)">
            <path
               sodipodi:type="star"
               style="fill:#fbc3a2;fill-opacity:1;stroke:#000000;stroke-width:0.600001;stroke-linecap:round;stroke-linejoin:round;stroke-dasharray:none;stroke-opacity:1;paint-order:stroke fill markers"
               id="path12494"
               inkscape:flatsided="true"
               sodipodi:sides="3"
               sodipodi:cx="109.68073"
               sodipodi:cy="203.22507"
               sodipodi:r1="0.97914821"
               sodipodi:r2="0.4895741"
               sodipodi:arg1="0.86994192"
               sodipodi:arg2="1.9171395"
               inkscape:rounded="0"
               inkscape:randomized="0"
               d="m 110.31216,203.97342 -1.59523,-0.5757 1.29618,-1.09366 z"
               inkscape:transform-center-x="-0.054577918"
               inkscape:transform-center-y="0.053150394"
               transform="matrix(0.25879902,0.37459559,-0.37459559,0.25879902,140.07183,57.769118)" />
            <path
               sodipodi:type="star"
               style="fill:#fbc3a2;fill-opacity:1;stroke:#000000;stroke-width:0.600001;stroke-linecap:round;stroke-linejoin:round;stroke-dasharray:none;stroke-opacity:1;paint-order:stroke fill markers"
               id="path12494-4"
               inkscape:flatsided="true"
               sodipodi:sides="3"
               sodipodi:cx="109.68073"
               sodipodi:cy="203.22507"
               sodipodi:r1="0.97914821"
               sodipodi:r2="0.4895741"
               sodipodi:arg1="0.86994192"
               sodipodi:arg2="1.9171395"
               inkscape:rounded="0"
               inkscape:randomized="0"
               d="m 110.31216,203.97342 -1.59523,-0.5757 1.29618,-1.09366 z"
               inkscape:transform-center-x="-0.022870138"
               inkscape:transform-center-y="-0.08362058"
               transform="matrix(-0.03052897,0.45427609,-0.45427609,-0.03052897,189.03659,107.39804)" />
            <path
               sodipodi:type="star"
               style="fill:#fbc3a2;fill-opacity:1;stroke:#000000;stroke-width:0.600001;stroke-linecap:round;stroke-linejoin:round;stroke-dasharray:none;stroke-opacity:1;paint-order:stroke fill markers"
               id="path12494-4-4"
               inkscape:flatsided="true"
               sodipodi:sides="3"
               sodipodi:cx="109.68073"
               sodipodi:cy="203.22507"
               sodipodi:r1="0.97914821"
               sodipodi:r2="0.4895741"
               sodipodi:arg1="0.86994192"
               sodipodi:arg2="1.9171395"
               inkscape:rounded="0"
               inkscape:randomized="0"
               d="m 110.31216,203.97342 -1.59523,-0.5757 1.29618,-1.09366 z"
               inkscape:transform-center-x="0.097874727"
               inkscape:transform-center-y="-0.0070966526"
               transform="matrix(-0.2815883,0.3577804,-0.3577804,-0.2815883,198.0719,169.11774)" />
            <path
               sodipodi:type="star"
               style="fill:#fbc3a2;fill-opacity:1;stroke:#000000;stroke-width:0.600001;stroke-linecap:round;stroke-linejoin:round;stroke-dasharray:none;stroke-opacity:1;paint-order:stroke fill markers"
               id="path12494-43"
               inkscape:flatsided="true"
               sodipodi:sides="3"
               sodipodi:cx="109.68073"
               sodipodi:cy="203.22507"
               sodipodi:r1="0.97914821"
               sodipodi:r2="0.4895741"
               sodipodi:arg1="0.86994192"
               sodipodi:arg2="1.9171395"
               inkscape:rounded="0"
               inkscape:randomized="0"
               d="m 110.31216,203.97342 -1.59523,-0.5757 1.29618,-1.09366 z"
               inkscape:transform-center-x="-0.054577918"
               inkscape:transform-center-y="0.053150394"
               transform="matrix(-0.25879902,0.37459559,0.37459559,0.25879902,38.391199,57.770413)" />
            <path
               sodipodi:type="star"
               style="fill:#fbc3a2;fill-opacity:1;stroke:#000000;stroke-width:0.600001;stroke-linecap:round;stroke-linejoin:round;stroke-dasharray:none;stroke-opacity:1;paint-order:stroke fill markers"
               id="path12494-4-5"
               inkscape:flatsided="true"
               sodipodi:sides="3"
               sodipodi:cx="109.68073"
               sodipodi:cy="203.22507"
               sodipodi:r1="0.97914821"
               sodipodi:r2="0.4895741"
               sodipodi:arg1="0.86994192"
               sodipodi:arg2="1.9171395"
               inkscape:rounded="0"
               inkscape:randomized="0"
               d="m 110.31216,203.97342 -1.59523,-0.5757 1.29618,-1.09366 z"
               inkscape:transform-center-x="-0.022870138"
               inkscape:transform-center-y="-0.08362058"
               transform="matrix(0.03052897,0.45427609,0.45427609,-0.03052897,-10.573566,107.39934)" />
            <g
               id="g31751"
               transform="translate(-5.9868373,-5.9868373)">
              <g
                 id="g31721">
                <g
                   id="g31553">
                  <path
                     id="path20148-2-2-3-3-1"
                     style="fill:#ab6333;fill-opacity:1;stroke:#000000;stroke-width:0.384176;stroke-linecap:round;stroke-linejoin:round;stroke-dasharray:none;paint-order:stroke fill markers"
                     d="m 102.14876,161.40682 c 0.37955,2.35536 -0.22462,3.75433 -1.84123,3.97311 -1.61662,0.21842 -3.125721,-0.9623 -2.77683,-3.35605 0.415272,-2.84914 0.382445,-4.59761 1.905941,-4.7871 1.628179,-0.20243 2.045459,2.02935 2.700399,4.09843"
                     sodipodi:nodetypes="csssc" />
                  <g
                     id="g31547">
                    <path
                       id="path16920"
                       style="fill:#dda16b;fill-opacity:1;stroke:#000000;stroke-width:0.347006;stroke-linecap:round;stroke-linejoin:round;stroke-dasharray:none;paint-order:stroke fill markers"
                       d="m 101.54731,162.59864 c 0.0666,0.97162 -0.5768,1.80762 -1.43804,1.86849 -0.861233,0.0612 -1.887021,-0.69498 -1.684998,-1.6477 0.213495,-1.00682 0.535225,-2.35035 1.396207,-2.41493 0.861001,-0.0644 1.351651,1.30702 1.725861,2.18076"
                       sodipodi:nodetypes="csssc" />
                    <path
                       id="path19101"
                       style="fill:#dda16b;fill-opacity:1;stroke:#000000;stroke-width:0.273481;stroke-linecap:round;stroke-linejoin:round;stroke-dasharray:none;stroke-opacity:1;paint-order:stroke fill markers"
                       d="m 99.516581,157.9584 c -0.282157,0.0348 -0.56818,0.18564 -0.88237,0.4227 l 0.0086,-0.006 c -0.09693,0.0662 -0.18145,0.17107 -0.240944,0.29895 -0.151633,0.32545 -0.105387,0.71328 0.103566,0.86662 0.152608,0.11205 0.356956,0.0704 0.518249,-0.10571 l -0.02131,0.011 c 0.546878,-0.5071 0.680132,-0.61751 1.456628,-0.22252 l -0.0319,-0.0198 c 0.17689,0.0928 0.3521,0.0724 0.4607,-0.0538 0.16922,-0.19619 0.12821,-0.58484 -0.0909,-0.86868 l -0.002,-0.003 c -0.14096,-0.17955 -0.51866,-0.34576 -0.6827,-0.32991 l 0.21779,0.0663 c -0.25531,-0.14467 -0.54735,-0.0891 -0.812295,-0.0554 z"
                       sodipodi:nodetypes="scccsccccsccccss" />
                  </g>
                </g>
              </g>
              <g
                 id="g31563">
                <path
                   id="path20148-2-2-3-3-1-3"
                   style="fill:#ab6333;fill-opacity:1;stroke:#000000;stroke-width:0.384176;stroke-linecap:round;stroke-linejoin:round;stroke-dasharray:none;paint-order:stroke fill markers"
                   d="m 88.287927,161.40811 c -0.379554,2.35536 0.224622,3.75433 1.841231,3.97312 1.616619,0.21842 3.12572,-0.9623 2.776829,-3.35606 -0.415261,-2.84914 -0.382445,-4.5976 -1.905941,-4.78709 -1.628176,-0.20243 -2.04545,2.02935 -2.700403,4.09843"
                   sodipodi:nodetypes="csssc" />
                <g
                   id="g31557">
                  <path
                     id="path16920-9"
                     style="fill:#dda16b;fill-opacity:1;stroke:#000000;stroke-width:0.347006;stroke-linecap:round;stroke-linejoin:round;stroke-dasharray:none;paint-order:stroke fill markers"
                     d="m 88.889397,162.59993 c -0.06662,0.97163 0.57679,1.80762 1.43804,1.8685 0.861228,0.0611 1.887016,-0.69499 1.684993,-1.6477 -0.213495,-1.00682 -0.535225,-2.35036 -1.396207,-2.41494 -0.861003,-0.0644 -1.351653,1.30703 -1.725862,2.18076"
                     sodipodi:nodetypes="csssc" />
                  <path
                     id="path19101-6"
                     style="fill:#dda16b;fill-opacity:1;stroke:#000000;stroke-width:0.273481;stroke-linecap:round;stroke-linejoin:round;stroke-dasharray:none;stroke-opacity:1;paint-order:stroke fill markers"
                     d="m 90.920121,157.9597 c 0.282157,0.0348 0.56818,0.18564 0.88237,0.42269 l -0.0086,-0.006 c 0.09693,0.0662 0.18145,0.17107 0.240944,0.29895 0.151633,0.32544 0.105387,0.71328 -0.103566,0.86661 -0.152608,0.11205 -0.356956,0.0704 -0.518249,-0.10571 l 0.02131,0.011 c -0.546878,-0.5071 -0.680132,-0.61751 -1.456622,-0.22253 l 0.03192,-0.0198 c -0.176888,0.0927 -0.352094,0.0724 -0.460694,-0.0538 -0.169219,-0.19618 -0.12821,-0.58484 0.09093,-0.86868 l 0.0021,-0.003 c 0.140955,-0.17956 0.518656,-0.34576 0.682691,-0.32991 l -0.217789,0.0663 c 0.255317,-0.14467 0.547349,-0.0891 0.812294,-0.0554 z"
                     sodipodi:nodetypes="scccsccccsccccss" />
                </g>
              </g>
            </g>
            <path
               sodipodi:type="star"
               style="fill:#fbc3a2;fill-opacity:1;stroke:#000000;stroke-width:0.600001;stroke-linecap:round;stroke-linejoin:round;stroke-dasharray:none;stroke-opacity:1;paint-order:stroke fill markers"
               id="path12494-4-4-6"
               inkscape:flatsided="true"
               sodipodi:sides="3"
               sodipodi:cx="109.68073"
               sodipodi:cy="203.22507"
               sodipodi:r1="0.97914821"
               sodipodi:r2="0.4895741"
               sodipodi:arg1="0.86994192"
               sodipodi:arg2="1.9171395"
               inkscape:rounded="0"
               inkscape:randomized="0"
               d="m 110.31216,203.97342 -1.59523,-0.5757 1.29618,-1.09366 z"
               inkscape:transform-center-x="0.097874727"
               inkscape:transform-center-y="-0.0070966526"
               transform="matrix(0.2815883,0.3577804,0.3577804,-0.2815883,-19.608874,169.11904)" />
          </g>
        </g>
      </g>
    </g>
  </g>
</svg>
