<?xml version="1.0" encoding="UTF-8" standalone="no"?>
<svg
   width="1037"
   height="990"
   viewBox="0 0 1037 990"
   fill="none"
   version="1.1"
   id="svg79"
   sodipodi:docname="Group 56.svg"
   inkscape:version="1.2.2 (732a01da63, 2022-12-09)"
   xmlns:inkscape="http://www.inkscape.org/namespaces/inkscape"
   xmlns:sodipodi="http://sodipodi.sourceforge.net/DTD/sodipodi-0.dtd"
   xmlns="http://www.w3.org/2000/svg"
   xmlns:svg="http://www.w3.org/2000/svg">
  <sodipodi:namedview
     id="namedview81"
     pagecolor="#ffffff"
     bordercolor="#000000"
     borderopacity="0.25"
     inkscape:showpageshadow="2"
     inkscape:pageopacity="0.0"
     inkscape:pagecheckerboard="0"
     inkscape:deskcolor="#d1d1d1"
     showgrid="false"
     inkscape:zoom="0.46778989"
     inkscape:cx="443.57521"
     inkscape:cy="671.24153"
     inkscape:window-width="1920"
     inkscape:window-height="1017"
     inkscape:window-x="-8"
     inkscape:window-y="-8"
     inkscape:window-maximized="1"
     inkscape:current-layer="svg79" />
  <path
     d="m 261.948,993.268 6.561,-143.734 c 0.285,-6.247 4.808,-11.48 10.966,-12.69 l 107.479,-21.12 c 4.566,-0.897 8.35,-4.046 10.043,-8.359 l 54.678,-139.226 c 0.787,-2.004 2.041,-3.792 3.659,-5.216 L 563.8,567.436 c 2.647,-2.33 4.28,-5.594 4.554,-9.107 l 16.392,-209.501 c 0.599,-7.662 7.448,-13.287 15.124,-12.422 l 148.625,16.754 c 2.045,0.23 4.114,-0.001 6.053,-0.677 l 126.209,-44.011 c 5.378,-1.876 9.009,-6.882 9.11,-12.561 l 3.464,-194.684 c 0.082,-4.5856 2.476,-8.813 6.37,-11.2475 L 1018.71,15.5848"
     stroke="#ffffff"
     stroke-width="2"
     stroke-linecap="round"
     stroke-linejoin="round"
     id="path2" />
  <g
     filter="url(#filter0_f_123_15)"
     id="g6">
    <path
       d="m 390.939,811.529 c 6.816,20.959 -5.528,43.798 -27.57,51.012 -22.042,7.215 -45.435,-3.927 -52.251,-24.886 -6.816,-20.959 5.528,-43.797 27.57,-51.012 22.042,-7.215 45.436,3.927 52.251,24.886 z"
       fill="#ffffff"
       id="path4" />
  </g>
  <g
     filter="url(#filter1_f_123_15)"
     id="g10">
    <path
       d="m 360.691,821.43 c 1.794,5.515 -1.455,11.525 -7.255,13.424 -5.801,1.899 -11.957,-1.034 -13.75,-6.549 -1.794,-5.515 1.454,-11.526 7.255,-13.424 5.8,-1.899 11.957,1.033 13.75,6.549 z"
       fill="#fb7312"
       id="path8" />
  </g>
  <g
     filter="url(#filter2_f_123_15)"
     id="g14">
    <path
       d="m 884.171,308.456 c 6.816,20.959 -5.528,43.798 -27.57,51.012 -22.042,7.215 -45.435,-3.927 -52.251,-24.886 -6.816,-20.959 5.528,-43.798 27.57,-51.012 22.042,-7.215 45.436,3.927 52.251,24.886 z"
       fill="#ffffff"
       id="path12" />
  </g>
  <g
     filter="url(#filter3_f_123_15)"
     id="g18">
    <path
       d="m 853.924,318.356 c 1.793,5.516 -1.455,11.526 -7.256,13.425 -5.8,1.898 -11.956,-1.034 -13.75,-6.549 -1.794,-5.516 1.455,-11.526 7.255,-13.425 5.801,-1.898 11.957,1.034 13.751,6.549 z"
       fill="#fb7312"
       id="path16" />
  </g>
  <g
     filter="url(#filter4_f_123_15)"
     id="g22">
    <path
       d="m 613.802,495.315 c 6.816,20.958 -5.528,43.797 -27.57,51.012 -22.042,7.214 -45.436,-3.928 -52.251,-24.886 -6.816,-20.959 5.528,-43.798 27.57,-51.013 22.042,-7.214 45.436,3.928 52.251,24.887 z"
       fill="#ffffff"
       id="path20" />
  </g>
  <g
     filter="url(#filter5_f_123_15)"
     id="g26">
    <path
       d="m 584.394,504.94 c 1.794,5.515 -1.454,11.526 -7.255,13.424 -5.801,1.899 -11.957,-1.033 -13.75,-6.549 -1.794,-5.515 1.454,-11.525 7.255,-13.424 5.8,-1.899 11.957,1.033 13.75,6.549 z"
       fill="#fb7312"
       id="path24" />
  </g>
  <g
     clip-path="url(#clip0_123_15)"
     id="g30">
    <path
       d="m 643.064,528.126 -53.479,-20.54 c -1.901,-0.725 -3.977,-0.935 -5.994,-0.604 -2.018,0.33 -3.899,1.186 -5.433,2.474 -1.534,1.287 -2.661,2.954 -3.255,4.816 -0.594,1.861 -0.632,3.844 -0.11,5.726 l 14.843,52.959 c 0.589,2.088 1.842,3.952 3.586,5.339 1.744,1.388 3.896,2.231 6.161,2.414 2.266,0.184 4.535,-0.301 6.498,-1.388 1.964,-1.087 3.526,-2.723 4.474,-4.686 l 8.963,-18.735 c 0.225,-0.443 0.541,-0.84 0.93,-1.166 0.389,-0.326 0.842,-0.575 1.333,-0.732 l 20.676,-6.136 c 2.166,-0.651 4.069,-1.921 5.447,-3.638 1.378,-1.717 2.164,-3.796 2.253,-5.955 0.088,-2.158 -0.527,-4.291 -1.76,-6.107 -1.234,-1.816 -3.026,-3.227 -5.133,-4.041 z m -0.639,9.882 c -0.032,0.72 -0.296,1.414 -0.759,1.986 -0.462,0.572 -1.099,0.994 -1.823,1.208 l -20.651,6.161 c -1.477,0.441 -2.84,1.171 -4,2.145 -1.16,0.973 -2.091,2.167 -2.734,3.505 l -8.804,18.695 c -0.318,0.647 -0.836,1.185 -1.486,1.543 -0.649,0.359 -1.398,0.52 -2.147,0.462 -0.749,-0.059 -1.462,-0.333 -2.042,-0.786 -0.581,-0.454 -1.002,-1.065 -1.207,-1.752 l -14.843,-52.96 c -0.168,-0.624 -0.152,-1.28 0.047,-1.896 0.199,-0.616 0.573,-1.167 1.081,-1.593 0.508,-0.426 1.13,-0.711 1.798,-0.822 0.667,-0.112 1.355,-0.046 1.986,0.189 l 53.479,20.541 c 0.697,0.271 1.289,0.739 1.698,1.339 0.41,0.601 0.615,1.306 0.59,2.021 z"
       fill="#463e53"
       id="path28" />
  </g>
  <defs
     id="defs77">
    <filter
       id="filter0_f_123_15"
       x="209.243"
       y="684.44702"
       width="283.57199"
       height="280.29099"
       filterUnits="userSpaceOnUse"
       color-interpolation-filters="sRGB">
      <feFlood
         flood-opacity="0"
         result="BackgroundImageFix"
         id="feFlood32" />
      <feBlend
         mode="normal"
         in="SourceGraphic"
         in2="BackgroundImageFix"
         result="shape"
         id="feBlend34" />
      <feGaussianBlur
         stdDeviation="50"
         result="effect1_foregroundBlur_123_15"
         id="feGaussianBlur36" />
    </filter>
    <filter
       id="filter1_f_123_15"
       x="331.19199"
       y="806.30298"
       width="37.992699"
       height="37.1292"
       filterUnits="userSpaceOnUse"
       color-interpolation-filters="sRGB">
      <feFlood
         flood-opacity="0"
         result="BackgroundImageFix"
         id="feFlood39" />
      <feBlend
         mode="normal"
         in="SourceGraphic"
         in2="BackgroundImageFix"
         result="shape"
         id="feBlend41" />
      <feGaussianBlur
         stdDeviation="4"
         result="effect1_foregroundBlur_123_15"
         id="feGaussianBlur43" />
    </filter>
    <filter
       id="filter2_f_123_15"
       x="702.47498"
       y="181.373"
       width="283.57199"
       height="280.29099"
       filterUnits="userSpaceOnUse"
       color-interpolation-filters="sRGB">
      <feFlood
         flood-opacity="0"
         result="BackgroundImageFix"
         id="feFlood46" />
      <feBlend
         mode="normal"
         in="SourceGraphic"
         in2="BackgroundImageFix"
         result="shape"
         id="feBlend48" />
      <feGaussianBlur
         stdDeviation="50"
         result="effect1_foregroundBlur_123_15"
         id="feGaussianBlur50" />
    </filter>
    <filter
       id="filter3_f_123_15"
       x="824.42401"
       y="303.229"
       width="37.992699"
       height="37.129299"
       filterUnits="userSpaceOnUse"
       color-interpolation-filters="sRGB">
      <feFlood
         flood-opacity="0"
         result="BackgroundImageFix"
         id="feFlood53" />
      <feBlend
         mode="normal"
         in="SourceGraphic"
         in2="BackgroundImageFix"
         result="shape"
         id="feBlend55" />
      <feGaussianBlur
         stdDeviation="4"
         result="effect1_foregroundBlur_123_15"
         id="feGaussianBlur57" />
    </filter>
    <filter
       id="filter4_f_123_15"
       x="432.10501"
       y="368.23199"
       width="283.57199"
       height="280.29099"
       filterUnits="userSpaceOnUse"
       color-interpolation-filters="sRGB">
      <feFlood
         flood-opacity="0"
         result="BackgroundImageFix"
         id="feFlood60" />
      <feBlend
         mode="normal"
         in="SourceGraphic"
         in2="BackgroundImageFix"
         result="shape"
         id="feBlend62" />
      <feGaussianBlur
         stdDeviation="50"
         result="effect1_foregroundBlur_123_15"
         id="feGaussianBlur64" />
    </filter>
    <filter
       id="filter5_f_123_15"
       x="554.89502"
       y="489.81299"
       width="37.992699"
       height="37.1292"
       filterUnits="userSpaceOnUse"
       color-interpolation-filters="sRGB">
      <feFlood
         flood-opacity="0"
         result="BackgroundImageFix"
         id="feFlood67" />
      <feBlend
         mode="normal"
         in="SourceGraphic"
         in2="BackgroundImageFix"
         result="shape"
         id="feBlend69" />
      <feGaussianBlur
         stdDeviation="4"
         result="effect1_foregroundBlur_123_15"
         id="feGaussianBlur71" />
    </filter>
    <clipPath
       id="clip0_123_15">
      <rect
         width="86.378304"
         height="86.097397"
         fill="#ffffff"
         transform="matrix(0.766773,-0.643399,0.680184,0.731734,542,533.576)"
         id="rect74"
         x="0"
         y="0" />
    </clipPath>
  </defs>
</svg>
