<?xml version="1.0" standalone="no"?>
<!DOCTYPE svg PUBLIC "-//W3C//DTD SVG 20010904//EN"
 "http://www.w3.org/TR/2001/REC-SVG-20010904/DTD/svg10.dtd">
<svg version="1.0" xmlns="http://www.w3.org/2000/svg"
 width="77.000000pt" height="75.000000pt" viewBox="0 0 77.000000 75.000000"
 preserveAspectRatio="xMidYMid meet">

<g transform="translate(0.000000,75.000000) scale(0.100000,-0.100000)"
fill="#000000" stroke="none">
<path d="M61 726 c-27 -15 -50 -52 -51 -81 0 -24 146 -551 163 -583 24 -48
110 -68 155 -36 12 8 48 66 78 127 31 62 58 113 59 115 2 2 56 19 121 38 136
40 174 68 174 129 0 66 -28 83 -333 199 -153 58 -293 106 -310 106 -18 -1 -43
-7 -56 -14z m348 -159 c152 -58 269 -109 275 -119 17 -28 -9 -44 -132 -82 -62
-18 -123 -42 -134 -52 -12 -11 -42 -64 -68 -119 -89 -189 -94 -184 -195 175
-76 273 -78 283 -60 296 23 17 -8 27 314 -99z"/>
</g>
</svg>
